HIERARCHY
ROOT Hips
{
	OFFSET 54.516819 111.144142 -24.173447
	CHANNELS 6 Xposition Yposition Zposition Xrotation Yrotation Zrotation
	JOINT Chest
	{
		OFFSET -0.178986 13.541504 1.658276
		CHANNELS 3 Xrotation Yrotation Zrotation
		JOINT Chest2
		{
			OFFSET -1.419395 21.142555 3.169291
			CHANNELS 3 Xrotation Yrotation Zrotation
			JOINT Chest3
			{
				OFFSET -0.470043 14.917114 0.280817
				CHANNELS 3 Xrotation Yrotation Zrotation
				JOINT Neck
				{
					OFFSET 0.127369 17.151230 2.105986
					CHANNELS 3 Xrotation Yrotation Zrotation
					JOINT Head
					{
						OFFSET -0.211525 10.379211 1.433536
						CHANNELS 3 Xrotation Yrotation Zrotation
						End Site
						{
							OFFSET -0.197887 10.389053 1.362415
						}
					}
				}
				JOINT LeftCollar
				{
					OFFSET 3.993076 12.729019 4.881792
					CHANNELS 3 Xrotation Yrotation Zrotation
					JOINT LeftUpArm
					{
						OFFSET 15.252720 -5.177124 -7.003653
						CHANNELS 3 Xrotation Yrotation Zrotation
						JOINT LeftLowArm
						{
							OFFSET 5.371178 -33.077164 -4.096319
							CHANNELS 3 Xrotation Yrotation Zrotation
							JOINT LeftHand
							{
								OFFSET 0.224747 -29.323273 6.406414
								CHANNELS 3 Xrotation Yrotation Zrotation
								End Site
								{
									OFFSET 0.049095 -6.408775 1.400156
								}
							}
						}
					}
				}
				JOINT RightCollar
				{
					OFFSET -4.380241 12.894043 4.045485
					CHANNELS 3 Xrotation Yrotation Zrotation
					JOINT RightUpArm
					{
						OFFSET -13.112854 -5.429749 -10.347333
						CHANNELS 3 Xrotation Yrotation Zrotation
						JOINT RightLowArm
						{
							OFFSET -7.109348 -32.900848 -2.593586
							CHANNELS 3 Xrotation Yrotation Zrotation
							JOINT RightHand
							{
								OFFSET -2.382811 -28.179077 10.060680
								CHANNELS 3 Xrotation Yrotation Zrotation
								End Site
								{
									OFFSET -0.520792 -6.158813 2.198862
								}
							}
						}
					}
				}
			}
		}
	}
	JOINT LeftUpLeg
	{
		OFFSET 9.857113 -0.090630 1.802298
		CHANNELS 3 Xrotation Yrotation Zrotation
		JOINT LeftLowLeg
		{
			OFFSET 2.556458 -46.966568 5.620998
			CHANNELS 3 Xrotation Yrotation Zrotation
			JOINT LeftFoot
			{
				OFFSET 4.215950 -43.046566 -11.392395
				CHANNELS 3 Xrotation Yrotation Zrotation
				JOINT LeftToe
				{
					OFFSET -0.632286 -16.521137 16.917797
					CHANNELS 3 Xrotation Yrotation Zrotation
					End Site
					{
						OFFSET -1.776939 -2.042900 23.499531
					}
				}
			}
		}
	}
	JOINT RightUpLeg
	{
		OFFSET -9.857113 0.090431 -1.802322
		CHANNELS 3 Xrotation Yrotation Zrotation
		JOINT RightLowLeg
		{
			OFFSET -1.078503 -47.321152 -1.886221
			CHANNELS 3 Xrotation Yrotation Zrotation
			JOINT RightFoot
			{
				OFFSET 6.051285 -40.828362 -17.233892
				CHANNELS 3 Xrotation Yrotation Zrotation
				JOINT RightToe
				{
					OFFSET -5.720383 -19.921804 11.399818
					CHANNELS 3 Xrotation Yrotation Zrotation
					End Site
					{
						OFFSET -10.327549 -7.302596 19.989244
					}
				}
			}
		}
	}
}
MOTION
Frames: 12
Frame Time: 0.033333
-7.385059 105.415543 -1.111626 5.269686 7.540791 0.132357 -4.763094 -0.005664 -0.023825 1.151440 -0.431012 0.883958 0.420817 0.703604 -0.465695 0.054501 -0.116762 0.819793 -0.000001 -0.000000 -0.000000 -0.227000 -2.175977 -0.304538 -5.475530 -3.601577 -1.845713 -3.264357 -0.453481 -2.031440 -0.000000 -0.000003 0.000002 -0.273784 -1.613808 -0.171420 0.981716 -1.637907 2.206136 -0.748532 0.706819 4.539086 0.000001 -0.000002 0.000001 5.381725 0.402677 1.733444 -7.778389 1.611726 -2.088867 -0.646008 -1.229542 -0.742773 0.000000 0.000001 -0.000000 1.498237 -0.053504 0.607501 -10.990844 -0.825903 -5.918938 1.844712 5.064928 1.119744 0.000002 0.000005 0.000002 
-7.387318 105.417862 -1.114529 5.132712 7.513922 0.278763 -4.977263 0.027118 -0.168733 1.631847 -0.385308 0.879668 0.075468 0.665138 -0.511019 -0.109157 -0.289013 0.870939 0.000000 0.000000 0.000000 -0.345886 -2.172502 -0.452822 -5.363291 -3.329566 -1.633480 -3.463452 -0.287215 -2.155519 0.000001 0.000001 -0.000001 -0.406485 -1.483554 -0.257817 1.205665 -2.098224 2.283248 -0.782390 0.510663 4.768956 0.000001 0.000002 0.000000 5.553480 0.405018 1.609571 -8.043495 1.736240 -2.087329 -0.633966 -1.223845 -0.724802 0.000000 -0.000001 -0.000000 1.447079 -0.065416 0.417645 -10.867943 -0.933392 -5.932094 1.824589 5.254961 1.174023 0.000001 0.000001 0.000003 
-7.388817 105.419037 -1.122799 5.222201 7.463547 0.284972 -4.981742 0.020943 -0.135349 1.698475 -0.315354 0.796840 0.135465 0.836423 -0.407500 -0.631650 -0.313017 0.862739 -0.000002 0.000000 0.000000 -0.277173 -2.675395 -0.590933 -5.338869 -3.261847 -1.624746 -4.043514 -0.287423 -1.987575 0.000001 0.000007 -0.000001 -0.441421 -1.594027 -0.166180 1.293750 -2.187101 2.133186 -1.276380 0.519143 4.715810 0.000001 0.000000 0.000002 5.405012 0.377274 1.584822 -7.911304 1.700206 -2.061231 -0.432357 -1.115492 -0.657796 0.000000 -0.000000 -0.000000 1.351964 -0.042727 0.396082 -10.951621 -0.903527 -5.953390 1.769127 5.102348 1.199471 0.000001 0.000003 0.000002 
-7.392239 105.425781 -1.129757 5.245474 7.555811 0.256083 -5.067626 0.025714 -0.089846 1.760266 -0.366173 0.841609 0.169643 0.578331 -0.477622 -0.535742 -0.161617 0.704316 -0.000001 -0.000001 0.000000 -0.377879 -2.277995 -0.795954 -5.440594 -3.216988 -1.474854 -3.846676 -0.146296 -2.154168 0.000000 -0.000000 -0.000000 -0.430340 -1.350793 -0.137095 1.424992 -2.401060 2.122856 -1.947393 0.658094 4.703036 -0.000001 0.000002 0.000001 5.278722 0.418238 1.565413 -7.817434 1.641845 -1.969528 -0.206916 -1.075494 -0.682799 0.000000 0.000000 -0.000000 1.133183 -0.064847 0.422962 -10.700507 -0.784438 -5.872025 1.785850 4.897110 1.134569 0.000002 0.000005 0.000003 
-7.388653 105.424126 -1.129564 5.526259 7.573588 0.247967 -5.272287 0.025144 -0.052863 1.879906 -0.393437 0.904513 0.031214 0.602183 -0.577853 -0.513220 -0.272771 0.819966 -0.000001 0.000000 0.000000 -0.338908 -2.222800 -0.910621 -5.436675 -3.343126 -1.454326 -4.013260 -0.282262 -2.053028 -0.000001 -0.000000 -0.000000 -0.387773 -1.337168 -0.119408 1.498630 -2.332931 2.153834 -1.806539 0.797319 4.562760 -0.000001 0.000000 0.000003 5.078648 0.387066 1.531982 -7.581938 1.600691 -1.955091 -0.539176 -1.015311 -0.610950 -0.000001 -0.000001 -0.000000 0.977990 -0.023908 0.391895 -10.678928 -0.716980 -5.845427 1.794759 4.901814 1.119941 0.000002 0.000001 0.000002 
-7.390579 105.426979 -1.132706 5.108179 7.310745 0.326098 -4.719057 0.028371 -0.060412 2.064782 -0.316289 0.796549 -0.319757 0.697282 -0.481925 -0.449430 -0.256890 0.732258 -0.000002 0.000002 -0.000000 -0.344632 -2.258032 -0.829837 -5.546473 -3.306671 -1.581757 -4.016490 -0.208031 -1.996085 -0.000000 0.000002 0.000000 -0.396374 -1.111750 -0.212402 1.457033 -2.470211 2.366469 -1.667074 0.576942 4.394114 -0.000001 -0.000002 -0.000000 5.316030 0.417432 1.451541 -7.474338 1.569339 -1.974539 -0.546356 -0.825920 -0.440722 -0.000001 0.000000 0.000000 1.209916 -0.052611 0.323465 -10.461944 -0.736471 -5.850690 1.657078 5.111767 1.298091 -0.000001 0.000001 0.000002 
-7.390991 105.432236 -1.137894 5.324932 7.164851 0.401889 -4.865616 0.045850 -0.180376 1.915625 -0.304442 0.750961 -0.246181 0.500558 -0.429555 -0.438316 -0.109068 0.630041 -0.000001 0.000000 -0.000000 -0.384282 -1.669668 -0.869833 -5.687783 -3.478450 -1.559664 -4.059149 -0.314688 -1.991478 -0.000001 0.000002 0.000000 -0.306447 -0.725486 -0.321548 1.376588 -2.415885 2.450651 -1.269366 0.623167 4.430642 -0.000000 0.000004 -0.000000 5.181020 0.420432 1.331619 -7.555425 1.555122 -1.987326 -0.665595 -0.641861 -0.315248 -0.000000 0.000001 -0.000000 0.957728 -0.059301 0.200027 -10.317818 -0.665414 -5.860379 1.568977 5.189004 1.508139 0.000001 0.000003 0.000002 
-7.392029 105.434715 -1.141363 4.889464 7.242701 0.431364 -4.332103 0.037421 -0.091298 1.537763 -0.284656 0.665039 -0.153410 0.460640 -0.430043 -0.468138 -0.124086 0.556860 -0.000002 0.000001 -0.000000 -0.466413 -1.776303 -0.852723 -5.371454 -2.988695 -1.487234 -3.765551 0.061161 -2.282748 0.000001 0.000004 0.000001 -0.450123 -0.785983 -0.298944 1.736853 -2.853389 2.385337 -1.517559 0.307289 4.720916 0.000000 -0.000002 0.000002 5.640131 0.441311 1.341440 -7.761841 1.533751 -1.998366 -0.666431 -0.798843 -0.419557 -0.000000 -0.000001 -0.000000 1.449170 -0.074246 0.244781 -10.413455 -0.721537 -5.868855 1.582839 5.255278 1.445337 -0.000001 0.000005 0.000002 
-7.393269 105.435501 -1.146463 5.503331 7.433590 0.358021 -5.407086 0.040188 -0.149273 2.046199 -0.402826 0.919151 -0.220299 0.332441 -0.683017 -0.394484 -0.084205 0.658990 -0.000001 0.000001 0.000000 -0.401964 -1.878118 -0.832917 -5.572962 -3.365548 -1.617489 -3.893403 -0.229863 -1.926265 -0.000001 0.000006 0.000002 -0.304355 -0.554469 -0.348516 1.467770 -2.454230 2.569199 -1.298525 0.638924 4.322428 0.000000 0.000002 -0.000000 5.180240 0.427102 1.352343 -8.024207 1.594775 -1.982801 -0.403746 -0.877892 -0.520928 -0.000000 0.000000 0.000000 0.795175 -0.059983 0.221890 -10.416499 -0.722654 -5.848923 1.657098 5.006711 1.328047 0.000001 0.000000 0.000001 
-7.392372 105.440216 -1.146519 5.211794 7.453533 0.367428 -4.667011 0.030474 -0.079790 1.281787 -0.377753 0.772564 0.176534 0.077006 -0.596595 -0.488819 -0.017927 0.572518 -0.000002 -0.000001 -0.000000 -0.411917 -1.290746 -0.737768 -5.546635 -3.503167 -1.694767 -3.755670 -0.399586 -1.964625 -0.000002 0.000002 0.000001 -0.166607 -0.121201 -0.334762 1.596056 -2.361180 2.688311 -1.208093 0.735738 4.083118 -0.000003 -0.000002 0.000001 5.569894 0.432669 1.417263 -8.280915 1.607157 -2.012052 -0.215336 -0.864935 -0.515788 0.000000 -0.000000 -0.000000 1.184387 -0.038733 0.267121 -10.629941 -0.737982 -5.899815 1.875408 5.266122 1.212363 0.000001 0.000001 0.000003 
-7.393459 105.450058 -1.153648 4.961916 7.421363 0.357616 -4.538786 0.025765 -0.080186 1.865999 -0.414733 0.917324 -0.157349 0.440295 -0.647471 -0.809010 -0.098131 0.644640 -0.000002 0.000000 -0.000000 -0.302308 -1.883015 -0.924264 -6.007980 -3.878711 -1.736601 -4.230448 -0.446501 -1.618466 0.000001 0.000002 -0.000000 -0.166880 -0.308135 -0.147111 1.523121 -2.219655 2.601526 -1.977213 0.925370 3.697317 -0.000000 0.000002 -0.000000 5.742169 0.457802 1.441241 -8.145408 1.705620 -1.939702 -0.056186 -0.946943 -0.575874 -0.000000 0.000000 0.000000 1.276412 -0.069700 0.286601 -10.499389 -0.806841 -5.886278 1.806371 5.315329 1.303589 -0.000000 0.000003 0.000003 
-7.390644 105.451645 -1.153627 5.008050 7.141629 0.339837 -4.651752 0.020136 -0.103410 1.471638 -0.408946 0.878455 0.257435 0.459585 -0.605873 -0.873082 -0.002746 0.681642 -0.000002 -0.000001 -0.000000 -0.229376 -1.911091 -0.804249 -5.716050 -3.732443 -1.789945 -4.251102 -0.444821 -1.544820 0.000000 -0.000002 -0.000000 -0.163896 -0.783292 -0.190944 1.473615 -2.042162 2.563071 -1.828040 0.899398 3.959516 -0.000003 0.000002 -0.000001 6.210263 0.456301 1.521230 -8.753547 1.636825 -2.084598 -0.240297 -0.796686 -0.411370 0.000000 -0.000000 0.000000 1.452758 -0.021294 0.271237 -10.834318 -0.708304 -5.868325 1.895496 5.324961 1.253173 0.000001 0.000003 0.000001 
